<svg xmlns="http://www.w3.org/2000/svg" width="46" height="44" viewBox="0 0 46 44" fill="none">
  <g filter="url(#filter0_d_3664_2874)">
    <rect x="5" y="1" width="36" height="36" rx="10" fill="#E9ECEF"/>
  </g>
  <path d="M23.8442 16.2563C23.8442 18.0547 22.3863 19.5126 20.5879 19.5126C18.7895 19.5126 17.3317 18.0547 17.3317 16.2563C17.3317 14.4579 18.7895 13 20.5879 13C22.3863 13 23.8442 14.4579 23.8442 16.2563Z" fill="#6B6D6E"/>
  <path d="M15 25.1407C15 22.6984 16.9798 20.7186 19.4221 20.7186H21.8342C24.2764 20.7186 26.2563 22.6984 26.2563 25.1407V25.2211C26.2563 25.6207 25.9323 25.9447 25.5327 25.9447H15.7236C15.324 25.9447 15 25.6207 15 25.2211V25.1407Z" fill="#6B6D6E"/>
  <path d="M27.6231 16.4975C27.6231 16.1645 27.8931 15.8945 28.2261 15.8945C28.5592 15.8945 28.8291 16.1645 28.8291 16.4975V20.8392C28.8291 21.1722 28.5592 21.4422 28.2261 21.4422C27.8931 21.4422 27.6231 21.1722 27.6231 20.8392V16.4975Z" fill="#6B6D6E"/>
  <path d="M26.0553 19.2714C25.7222 19.2714 25.4523 19.0014 25.4523 18.6683C25.4523 18.3353 25.7222 18.0653 26.0553 18.0653H30.397C30.73 18.0653 31 18.3353 31 18.6683C31 19.0014 30.73 19.2714 30.397 19.2714H26.0553Z" fill="#6B6D6E"/>
  <defs>
    <filter id="filter0_d_3664_2874" x="0" y="0" width="46" height="46" filterUnits="userSpaceOnUse" color-interpolation-filters="sRGB">
      <feFlood flood-opacity="0" result="BackgroundImageFix"/>
      <feColorMatrix in="SourceAlpha" type="matrix" values="0 0 0 0 0 0 0 0 0 0 0 0 0 0 0 0 0 0 127 0" result="hardAlpha"/>
      <feMorphology radius="1" operator="erode" in="SourceAlpha" result="effect1_dropShadow_3664_2874"/>
      <feOffset dy="4"/>
      <feGaussianBlur stdDeviation="3"/>
      <feComposite in2="hardAlpha" operator="out"/>
      <feColorMatrix type="matrix" values="0 0 0 0 0 0 0 0 0 0 0 0 0 0 0 0 0 0 0.12 0"/>
      <feBlend mode="normal" in2="BackgroundImageFix" result="effect1_dropShadow_3664_2874"/>
      <feBlend mode="normal" in="SourceGraphic" in2="effect1_dropShadow_3664_2874" result="shape"/>
    </filter>
  </defs>
</svg>