<svg xmlns="http://www.w3.org/2000/svg" width="47" height="44" viewBox="0 0 47 44" fill="none">
  <g filter="url(#filter0_d_3664_2848)">
    <rect x="5.5" y="1" width="36" height="36" rx="10" fill="#E9ECEF"/>
  </g>
  <path fill-rule="evenodd" clip-rule="evenodd" d="M27.0101 19.8287C27.043 19.5779 27.2567 19.3904 27.5096 19.3904H28.2137C28.4697 19.3904 28.685 19.5824 28.7142 19.8368L28.7764 20.3788C28.9753 20.4613 29.1606 20.5698 29.3283 20.6999L29.8639 20.4807C30.0979 20.3848 30.3668 20.4774 30.4922 20.697L30.8414 21.3084C30.9684 21.5307 30.9085 21.8129 30.7021 21.9644L30.2405 22.3033C30.2523 22.3998 30.2584 22.4982 30.2584 22.598C30.2584 22.7117 30.2505 22.8235 30.2352 22.933L30.6817 23.2799C30.8814 23.4351 30.9351 23.7143 30.8072 23.9325L30.4512 24.5399C30.3217 24.7608 30.0472 24.8494 29.813 24.746L29.2986 24.5188C29.1393 24.6385 28.9646 24.7389 28.7781 24.8164L28.7037 25.3841C28.6708 25.6348 28.4571 25.8224 28.2041 25.8224H27.5001C27.2441 25.8224 27.0287 25.6303 26.9996 25.376L26.9353 24.8163C26.748 24.7384 26.5726 24.6374 26.4128 24.517L25.8966 24.7386C25.6641 24.8383 25.3938 24.7503 25.2646 24.5329L24.9052 23.9275C24.7744 23.7074 24.8296 23.4242 25.0334 23.2692L25.4783 22.9309C25.4632 22.8221 25.4554 22.711 25.4554 22.598C25.4554 22.5018 25.461 22.4069 25.472 22.3137L25.036 21.9901C24.8329 21.8393 24.7731 21.5614 24.8962 21.3404L25.2387 20.7253C25.3633 20.5016 25.6358 20.407 25.8722 20.5052L26.3699 20.7121C26.5418 20.5764 26.7327 20.4636 26.938 20.3786L27.0101 19.8287ZM27.8721 23.2193C28.2153 23.2193 28.4935 22.9411 28.4935 22.598C28.4935 22.2548 28.2153 21.9766 27.8721 21.9766C27.529 21.9766 27.2508 22.2548 27.2508 22.598C27.2508 22.9411 27.529 23.2193 27.8721 23.2193Z" fill="#6B6D6E"/>
  <path d="M20.6757 15.0384C20.6757 16.1642 19.763 17.0769 18.6372 17.0769C17.5114 17.0769 16.5988 16.1642 16.5988 15.0384C16.5988 13.9126 17.5114 13 18.6372 13C19.763 13 20.6757 13.9126 20.6757 15.0384Z" fill="#6B6D6E"/>
  <path d="M29.8686 15.0384C29.8686 16.1642 28.956 17.0769 27.8302 17.0769C26.7044 17.0769 25.7917 16.1642 25.7917 15.0384C25.7917 13.9126 26.7044 13 27.8302 13C28.956 13 29.8686 13.9126 29.8686 15.0384Z" fill="#6B6D6E"/>
  <path d="M25.5519 18.5957C25.5519 19.9643 24.4424 21.0738 23.0738 21.0738C21.7052 21.0738 20.5957 19.9643 20.5957 18.5957C20.5957 17.2271 21.7052 16.1176 23.0738 16.1176C24.4424 16.1176 25.5519 17.2271 25.5519 18.5957Z" fill="#6B6D6E"/>
  <path d="M19.8215 17.8003L17.8466 17.7659C16.2825 17.7387 15 18.9991 15 20.5634V20.6741C15 20.8949 15.1789 21.0738 15.3997 21.0738H20.9155C20.0646 20.3184 19.7405 19.2272 19.8215 17.8003Z" fill="#6B6D6E"/>
  <path d="M26.214 19.946L26.0618 19.8699C26.0228 19.8504 26.0068 19.8032 26.0247 19.7635C26.2667 19.2281 26.2779 18.8547 26.215 18.2772C26.2023 18.161 26.2733 18.0515 26.3853 18.0179L26.811 17.8902C26.9302 17.8545 27.0541 17.8363 27.1785 17.8363H28.433C28.5898 17.8363 28.7469 17.8585 28.8958 17.9078C30.2946 18.3709 30.7487 18.9413 30.9992 20.2029C31.0072 20.2433 30.9552 20.2681 30.9274 20.2376C30.7882 20.0844 30.6614 19.9859 30.5054 19.915C30.2538 19.8007 29.9615 19.7831 29.7066 19.8897C29.5587 19.9516 29.4513 20.017 29.4289 19.9946C29.389 19.9547 29.309 19.555 29.309 19.555C29.2331 19.2848 29.1258 19.1422 28.9649 19.0267C28.7564 18.8773 28.5038 18.8013 28.2499 18.7644C27.9536 18.7214 27.7066 18.7197 27.4145 18.7477C27.1598 18.7721 26.9008 18.8379 26.7057 19.0034C26.6597 19.0424 26.6177 19.0848 26.5764 19.134C26.5013 19.2234 26.4523 19.3315 26.4217 19.4442C26.3799 19.5985 26.3559 19.724 26.3288 19.8872C26.32 19.9404 26.2622 19.9701 26.214 19.946Z" fill="#6B6D6E"/>
  <path d="M24.113 21.7933H21.1153C19.5043 22.2558 18.8415 22.8223 18.2775 24.4312V21.7933V25.2306C18.2775 25.5838 18.5638 25.8701 18.917 25.8701H26.4312V21.7933V25.3905C26.3095 25.3175 26.1595 25.33 26.0283 25.3839C25.967 25.4091 25.9032 25.427 25.8298 25.4407C25.6738 25.4698 25.5122 25.4528 25.363 25.399C24.7658 25.1837 24.4833 24.8212 24.2406 24.0957C24.1483 23.8197 24.1182 23.5142 24.2352 23.2477C24.3262 23.0407 24.4602 22.8827 24.6761 22.6969C24.7149 22.6635 24.714 22.6027 24.6747 22.57C24.4031 22.3446 24.277 22.1552 24.113 21.7933Z" fill="#6B6D6E"/>
  <defs>
    <filter id="filter0_d_3664_2848" x="0.5" y="0" width="46" height="46" filterUnits="userSpaceOnUse" color-interpolation-filters="sRGB">
      <feFlood flood-opacity="0" result="BackgroundImageFix"/>
      <feColorMatrix in="SourceAlpha" type="matrix" values="0 0 0 0 0 0 0 0 0 0 0 0 0 0 0 0 0 0 127 0" result="hardAlpha"/>
      <feMorphology radius="1" operator="erode" in="SourceAlpha" result="effect1_dropShadow_3664_2848"/>
      <feOffset dy="4"/>
      <feGaussianBlur stdDeviation="3"/>
      <feComposite in2="hardAlpha" operator="out"/>
      <feColorMatrix type="matrix" values="0 0 0 0 0 0 0 0 0 0 0 0 0 0 0 0 0 0 0.12 0"/>
      <feBlend mode="normal" in2="BackgroundImageFix" result="effect1_dropShadow_3664_2848"/>
      <feBlend mode="normal" in="SourceGraphic" in2="effect1_dropShadow_3664_2848" result="shape"/>
    </filter>
  </defs>
</svg>