<svg xmlns="http://www.w3.org/2000/svg" width="40" height="40" viewBox="0 0 40 40" fill="none">
  <rect width="40" height="40" rx="10" fill="url(#paint0_linear_3664_2838)"/>
  <path fill-rule="evenodd" clip-rule="evenodd" d="M19.3937 7.79481C19.6124 7.77255 19.9802 7.76768 20.1996 7.77256L20.7101 5.99997L22.9517 6.36151L22.8945 8.20391C23.0067 8.21621 23.4353 8.38671 23.6355 8.47043L24.7503 7.00501L26.7108 8.15569L25.9954 9.85462C26.064 9.89612 26.4218 10.2151 26.5922 10.3694L28.1531 9.40921L29.5742 11.1986L28.2976 12.5257C28.3382 12.5598 28.5589 13.0023 28.6641 13.2192L30.4682 12.8921L31.1481 15.0773L29.4834 15.8486C29.5147 15.9652 29.5588 16.4194 29.5769 16.6319L31.2762 16.9667V18.5486L31.2325 19.2695L29.4013 19.3787C29.4079 19.4259 29.2753 19.911 29.2081 20.1476L30.7606 21.1286L29.8001 23.2047L28.0565 22.6422C28.0295 22.7134 27.7417 23.1027 27.6012 23.2884L28.6997 24.7688L27.0647 26.3585L25.6347 25.2001C25.5756 25.2574 25.174 25.517 24.9805 25.6395L25.4726 27.4142L23.377 28.299L22.4554 26.6974C22.3208 26.7416 21.8929 26.8276 21.6958 26.8651L21.5186 28.7062L19.2443 28.7681L18.9625 26.9442C18.8153 26.9384 18.387 26.8599 18.1912 26.8214L17.3572 28.4696L15.2229 27.7029L15.612 25.8984C15.5272 25.8623 15.1244 25.6178 14.9336 25.5002L13.573 26.7361L11.8549 25.2438L12.8652 23.7022C12.7899 23.6432 12.5037 23.2697 12.3701 23.0903L10.6622 23.749L9.59321 21.7278L11.0903 20.6601C11.0093 20.4901 10.8956 20.0861 10.849 19.9053L9.0163 19.8907L8.84353 18.4223V17.5989L10.5207 17.1727C10.5144 16.9324 10.5507 16.5464 10.5696 16.3835L8.86486 15.7068L9.42438 13.4891L11.2437 13.7159C11.2801 13.58 11.4796 13.1817 11.5748 12.9996L10.2233 11.7479L11.5414 9.88183L13.1558 10.7505C13.2209 10.6545 13.5605 10.3452 13.7221 10.2025L12.9106 8.54763L14.8074 7.28656L16.0041 8.68717C16.2468 8.55848 16.4954 8.45299 16.7247 8.3827L16.5665 6.53788L18.7836 6.05641L19.3937 7.79481ZM19.177 9.65047C10.3427 10.9239 9.8007 23.5124 19.177 25.1355V9.65047ZM20.973 15.5489V9.65176C27.1489 10.5367 29.2295 17.0156 26.8329 21.1843L22.7527 17.7888C22.9628 16.8228 22.3502 15.611 20.973 15.5489ZM20.9734 19.2154V25.1154C23.1638 24.892 25.1182 23.5809 26.1542 22.1987L22.1112 18.8136C21.5812 19.2349 21.0632 19.2154 20.9734 19.2154ZM20.973 18.5715C22.4733 18.5536 22.5799 16.2789 20.973 16.1951V18.5715Z" fill="white"/>
  <path d="M21.0593 17.9784C21.7761 17.9784 21.921 16.875 21.0593 16.7846V17.9784Z" fill="white"/>
  <path d="M8.5819 31.4722C8.70696 31.4722 8.83763 31.5 8.9739 31.5556C9.15243 31.6286 9.29259 31.752 9.39436 31.9258C9.48837 32.0866 9.53538 32.2535 9.53538 32.4264C9.53538 32.6202 9.47888 32.7954 9.3659 32.9518C9.31415 33.0248 9.24989 33.0891 9.17313 33.1447C9.09637 33.1995 9.01789 33.2382 8.93768 33.2608C8.91698 33.2668 8.90663 33.2755 8.90663 33.2868C8.90663 33.3181 8.94457 33.3455 9.02047 33.369C9.09723 33.3924 9.18478 33.4042 9.2831 33.4042C9.34347 33.4042 9.40083 33.392 9.45517 33.3677C9.46638 33.3624 9.4763 33.3598 9.48492 33.3598C9.49872 33.3598 9.51252 33.3707 9.52632 33.3924C9.54012 33.4141 9.54702 33.4359 9.54702 33.4576C9.54702 33.5019 9.51942 33.5489 9.46422 33.5984C9.40816 33.6488 9.33528 33.6888 9.24558 33.7183C9.15675 33.7479 9.06489 33.7627 8.97002 33.7627C8.85876 33.7627 8.73801 33.7414 8.60777 33.6988C8.4784 33.6562 8.28909 33.5758 8.03983 33.4576C7.99584 33.4359 7.94625 33.4176 7.89105 33.4029C7.83585 33.3889 7.79014 33.382 7.75391 33.382C7.74184 33.382 7.72718 33.3833 7.70993 33.3859C7.70044 33.3868 7.69225 33.3872 7.68535 33.3872C7.66896 33.3872 7.65516 33.3798 7.64395 33.365C7.6336 33.3511 7.62842 33.3333 7.62842 33.3116C7.62842 33.2716 7.64136 33.2382 7.66723 33.2112C7.70863 33.1695 7.75952 33.1486 7.81989 33.1486L7.88976 33.1499C7.90873 33.1499 7.91822 33.1413 7.91822 33.1239C7.91822 33.1108 7.90054 33.0835 7.86517 33.0417C7.78496 32.9488 7.72588 32.8618 7.68793 32.781C7.62928 32.655 7.59996 32.5229 7.59996 32.3847C7.59996 32.2022 7.64783 32.0388 7.74356 31.8946C7.83671 31.7546 7.97169 31.6456 8.1485 31.5673C8.2934 31.5039 8.43786 31.4722 8.5819 31.4722ZM8.45382 31.8502C8.38568 31.8502 8.33221 31.8737 8.2934 31.9206C8.25545 31.9667 8.23647 32.0306 8.23647 32.1123C8.23647 32.2087 8.25157 32.3139 8.28175 32.4277C8.3128 32.5416 8.35464 32.6489 8.40725 32.7497C8.47797 32.8853 8.56594 32.9531 8.67117 32.9531C8.7393 32.9531 8.79536 32.9292 8.83935 32.8814C8.8842 32.8336 8.90663 32.7728 8.90663 32.6989C8.90663 32.6016 8.88938 32.4907 8.85488 32.3665C8.82038 32.2422 8.77639 32.1331 8.72292 32.0393C8.65392 31.9167 8.56422 31.8537 8.45382 31.8502Z" fill="white"/>
  <path d="M11.5562 32.1605V32.4786C11.5562 32.6706 11.5419 32.8067 11.5135 32.8866C11.4523 33.0552 11.3177 33.1773 11.1098 33.2529C10.9839 33.2999 10.8416 33.3233 10.6829 33.3233C10.4061 33.3233 10.1844 33.2568 10.0179 33.1239C9.93686 33.0587 9.8808 32.9831 9.84975 32.897C9.8187 32.811 9.80318 32.6867 9.80318 32.5242C9.80318 32.4608 9.80534 32.3565 9.80965 32.2113C9.81224 32.1088 9.81353 32.041 9.81353 32.008C9.81353 31.9358 9.80792 31.8859 9.79671 31.8581C9.78636 31.8302 9.76307 31.8042 9.72685 31.7798C9.66993 31.7425 9.64146 31.7007 9.64146 31.6547C9.64146 31.6208 9.65569 31.5908 9.68416 31.5647C9.71348 31.5387 9.75186 31.5208 9.7993 31.5113C9.89417 31.4922 10.0063 31.4826 10.1357 31.4826C10.278 31.4826 10.3961 31.4935 10.4901 31.5152C10.5824 31.5361 10.6286 31.5834 10.6286 31.6573C10.6286 31.6938 10.6152 31.7229 10.5885 31.7446C10.5824 31.7499 10.5566 31.7633 10.5108 31.785C10.4832 31.7972 10.4643 31.8194 10.4539 31.8515C10.4444 31.8837 10.4397 31.9367 10.4397 32.0106C10.4397 32.0862 10.4362 32.2496 10.4293 32.5007C10.425 32.6502 10.4651 32.7641 10.5497 32.8423C10.6187 32.9066 10.7075 32.9388 10.8162 32.9388C10.8852 32.9388 10.9477 32.9262 11.0038 32.901C11.0598 32.8749 11.1025 32.8397 11.1318 32.7954C11.1551 32.7615 11.1711 32.7237 11.1797 32.6819C11.1883 32.6402 11.1926 32.5833 11.1926 32.5112V32.2244C11.1883 32.0045 11.1819 31.8759 11.1732 31.8385C11.1655 31.8003 11.1379 31.7703 11.0904 31.7485C11.0456 31.7286 11.015 31.7103 10.9986 31.6938C10.9822 31.6773 10.974 31.6569 10.974 31.6325C10.974 31.5804 11.0046 31.5426 11.0659 31.5191C11.128 31.4948 11.2271 31.4826 11.3634 31.4826C11.4971 31.4826 11.5937 31.4943 11.6532 31.5178C11.7136 31.5413 11.7438 31.5786 11.7438 31.6299C11.7438 31.6551 11.7386 31.6738 11.7282 31.686C11.7179 31.6981 11.6907 31.7168 11.6467 31.742C11.601 31.7681 11.5747 31.7963 11.5678 31.8268C11.5618 31.8563 11.5579 31.9676 11.5562 32.1605Z" fill="white"/>
  <path d="M12.8266 31.4722C13.0483 31.4722 13.2419 31.5361 13.4075 31.6638C13.5196 31.7516 13.6106 31.8654 13.6805 32.0054C13.7486 32.1444 13.7827 32.2835 13.7827 32.4225C13.7827 32.6276 13.7154 32.811 13.5809 32.9727C13.467 33.11 13.3182 33.2086 13.1345 33.2686C13.0215 33.3051 12.9081 33.3233 12.7943 33.3233C12.6451 33.3233 12.5023 33.292 12.3661 33.2295C12.2013 33.1539 12.0724 33.0396 11.9792 32.8866C11.8887 32.7389 11.8434 32.5759 11.8434 32.3978C11.8434 32.1909 11.9016 32.0084 12.018 31.8502C12.1215 31.7094 12.2608 31.606 12.4359 31.54C12.5532 31.4948 12.6834 31.4722 12.8266 31.4722ZM12.7037 31.8463C12.6313 31.8463 12.5739 31.8789 12.5317 31.9441C12.4989 31.9928 12.4825 32.0506 12.4825 32.1175C12.4825 32.2157 12.5023 32.3295 12.542 32.459C12.5817 32.5876 12.6317 32.7019 12.6921 32.8019C12.7188 32.8445 12.7516 32.8784 12.7904 32.9036C12.8301 32.9288 12.8702 32.9414 12.9107 32.9414C12.9763 32.9414 13.0289 32.9166 13.0685 32.8671C13.1091 32.8175 13.1294 32.7523 13.1294 32.6715C13.1294 32.5664 13.1125 32.4529 13.0789 32.3313C13.0453 32.2096 13.0017 32.1057 12.9482 32.0197C12.9155 31.9667 12.8775 31.925 12.8344 31.8946C12.7913 31.8641 12.7477 31.8481 12.7037 31.8463Z" fill="white"/>
  <path d="M14.8811 31.4722C15.007 31.4722 15.1286 31.5 15.2459 31.5556C15.3011 31.5817 15.3395 31.5947 15.361 31.5947C15.3766 31.5947 15.4016 31.5908 15.4361 31.583C15.4473 31.5804 15.4598 31.5791 15.4736 31.5791C15.5184 31.5791 15.5577 31.5999 15.5913 31.6416C15.6741 31.7425 15.7155 31.8676 15.7155 32.0171C15.7155 32.1223 15.6797 32.1992 15.6081 32.2478C15.5693 32.2739 15.5258 32.2869 15.4775 32.2869C15.4335 32.2869 15.3977 32.2774 15.3701 32.2583C15.3425 32.2391 15.3158 32.2053 15.2899 32.1566C15.2528 32.0879 15.2226 32.0388 15.1993 32.0093C15.176 31.9789 15.1476 31.9515 15.1139 31.9271C15.0303 31.868 14.9427 31.8385 14.8513 31.8385C14.7625 31.8385 14.6917 31.8711 14.6391 31.9363C14.5874 32.0006 14.5615 32.0871 14.5615 32.1957C14.5615 32.3452 14.599 32.4821 14.6741 32.6063C14.7758 32.7723 14.9216 32.8553 15.1113 32.8553C15.1812 32.8553 15.2502 32.8436 15.3183 32.8201C15.3873 32.7967 15.4408 32.7662 15.4788 32.7289C15.5115 32.6976 15.5383 32.6819 15.559 32.6819C15.5892 32.6819 15.615 32.6963 15.6366 32.725C15.6582 32.7528 15.6689 32.7867 15.6689 32.8266C15.6689 32.8771 15.6538 32.9335 15.6237 32.9961C15.5935 33.0587 15.5573 33.1078 15.515 33.1434C15.4969 33.1582 15.4594 33.1712 15.4024 33.1825C15.3697 33.1886 15.3261 33.2047 15.2718 33.2308C15.1441 33.2925 15.0113 33.3233 14.8733 33.3233C14.7293 33.3233 14.5857 33.2907 14.4425 33.2256C14.276 33.1499 14.1445 33.0339 14.0479 32.8775C13.953 32.7254 13.9056 32.5664 13.9056 32.4004C13.9056 32.2074 13.9651 32.0314 14.0841 31.8724C14.1876 31.7342 14.3226 31.6286 14.4891 31.5556C14.6158 31.5 14.7465 31.4722 14.8811 31.4722Z" fill="white"/>
  <path d="M17.0067 33.2881H16.9135C16.8592 33.2881 16.7984 33.2907 16.7311 33.296C16.6888 33.2994 16.6595 33.3012 16.6431 33.3012C16.5853 33.3012 16.5383 33.2877 16.5021 33.2608C16.4659 33.2338 16.4478 33.1986 16.4478 33.1552C16.4478 33.1247 16.4555 33.1013 16.4711 33.0848C16.4874 33.0674 16.5137 33.0535 16.55 33.043C16.5845 33.0344 16.6078 33.0205 16.6198 33.0013C16.6319 32.9813 16.6414 32.9431 16.6483 32.8866C16.6552 32.8214 16.6612 32.6945 16.6664 32.506C16.6724 32.3174 16.6755 32.1301 16.6755 31.9441C16.6755 31.8711 16.6699 31.8224 16.6586 31.7981C16.6474 31.7738 16.6211 31.7542 16.5797 31.7394C16.5202 31.7168 16.4905 31.6782 16.4905 31.6234C16.4905 31.5808 16.5107 31.5478 16.5513 31.5243C16.5927 31.5 16.65 31.4878 16.7233 31.4878C16.7475 31.4878 16.7759 31.4883 16.8087 31.4891C16.8812 31.4917 16.9338 31.493 16.9666 31.493C17.0899 31.493 17.2292 31.4891 17.3844 31.4813C17.4172 31.4796 17.4582 31.4787 17.5073 31.4787C17.7048 31.4787 17.8609 31.5013 17.9757 31.5465C18.1464 31.6143 18.2749 31.7281 18.3612 31.888C18.438 32.0288 18.4763 32.1966 18.4763 32.3912C18.4763 32.4894 18.4621 32.5881 18.4336 32.6872C18.4052 32.7854 18.3668 32.8705 18.3185 32.9427C18.2184 33.0887 18.0805 33.1912 17.9045 33.2503C17.801 33.2851 17.6906 33.3025 17.5733 33.3025L17.4168 33.2973L17.2822 33.2933C17.1779 33.2899 17.086 33.2881 17.0067 33.2881ZM17.2783 31.875V32.884C17.2783 32.9388 17.29 32.9779 17.3133 33.0013C17.3366 33.0239 17.3754 33.0352 17.4297 33.0352C17.6816 33.0352 17.8075 32.8423 17.8075 32.4564C17.8075 32.2435 17.7781 32.0784 17.7195 31.961C17.6548 31.8315 17.5453 31.7668 17.3909 31.7668C17.3495 31.7668 17.3202 31.7751 17.3029 31.7916C17.2865 31.8081 17.2783 31.8359 17.2783 31.875Z" fill="white"/>
  <path d="M20.4881 32.1605V32.4786C20.4881 32.6706 20.4738 32.8067 20.4454 32.8866C20.3841 33.0552 20.2496 33.1773 20.0417 33.2529C19.9158 33.2999 19.7735 33.3233 19.6148 33.3233C19.338 33.3233 19.1163 33.2568 18.9498 33.1239C18.8688 33.0587 18.8127 32.9831 18.7817 32.897C18.7506 32.811 18.7351 32.6867 18.7351 32.5242C18.7351 32.4608 18.7372 32.3565 18.7415 32.2113C18.7441 32.1088 18.7454 32.041 18.7454 32.008C18.7454 31.9358 18.7398 31.8859 18.7286 31.8581C18.7183 31.8302 18.695 31.8042 18.6587 31.7798C18.6018 31.7425 18.5734 31.7007 18.5734 31.6547C18.5734 31.6208 18.5876 31.5908 18.6161 31.5647C18.6454 31.5387 18.6838 31.5208 18.7312 31.5113C18.8261 31.4922 18.9382 31.4826 19.0676 31.4826C19.2099 31.4826 19.328 31.4935 19.422 31.5152C19.5143 31.5361 19.5605 31.5834 19.5605 31.6573C19.5605 31.6938 19.5471 31.7229 19.5204 31.7446C19.5143 31.7499 19.4885 31.7633 19.4427 31.785C19.4151 31.7972 19.3962 31.8194 19.3858 31.8515C19.3763 31.8837 19.3716 31.9367 19.3716 32.0106C19.3716 32.0862 19.3681 32.2496 19.3612 32.5007C19.3569 32.6502 19.397 32.7641 19.4816 32.8423C19.5506 32.9066 19.6394 32.9388 19.7481 32.9388C19.8171 32.9388 19.8796 32.9262 19.9357 32.901C19.9917 32.8749 20.0344 32.8397 20.0637 32.7954C20.087 32.7615 20.103 32.7237 20.1116 32.6819C20.1202 32.6402 20.1245 32.5833 20.1245 32.5112V32.2244C20.1202 32.0045 20.1138 31.8759 20.1051 31.8385C20.0974 31.8003 20.0698 31.7703 20.0223 31.7485C19.9775 31.7286 19.9469 31.7103 19.9305 31.6938C19.9141 31.6773 19.9059 31.6569 19.9059 31.6325C19.9059 31.5804 19.9365 31.5426 19.9978 31.5191C20.0599 31.4948 20.159 31.4826 20.2953 31.4826C20.429 31.4826 20.5256 31.4943 20.5851 31.5178C20.6455 31.5413 20.6757 31.5786 20.6757 31.6299C20.6757 31.6551 20.6705 31.6738 20.6601 31.686C20.6498 31.6981 20.6226 31.7168 20.5786 31.742C20.5329 31.7681 20.5066 31.7963 20.4997 31.8268C20.4937 31.8563 20.4898 31.9676 20.4881 32.1605Z" fill="white"/>
  <path d="M21.2811 31.4813C21.4502 31.4813 21.5791 31.4904 21.668 31.5087C21.7085 31.5165 21.7408 31.5321 21.765 31.5556C21.79 31.5782 21.8025 31.6043 21.8025 31.6338C21.8025 31.6564 21.793 31.6795 21.774 31.7029C21.7464 31.7386 21.7326 31.7642 21.7326 31.7798C21.7326 31.8111 21.7572 31.8611 21.8064 31.9298C21.8383 31.9741 21.8685 31.9962 21.8969 31.9962C21.9151 31.9962 21.9327 31.9897 21.95 31.9767C21.9672 31.9628 21.9897 31.9384 22.0173 31.9037C22.0509 31.8611 22.0677 31.8272 22.0677 31.802C22.0677 31.7864 22.0656 31.7746 22.0613 31.7668C22.0578 31.759 22.044 31.7403 22.0199 31.7107C22.0026 31.6908 21.994 31.6638 21.994 31.6299C21.994 31.5317 22.1259 31.4826 22.3899 31.4826C22.5391 31.4826 22.6361 31.4896 22.6809 31.5035C22.7094 31.5122 22.7327 31.5287 22.7508 31.553C22.7698 31.5773 22.7793 31.6034 22.7793 31.6312C22.7793 31.6669 22.7685 31.6938 22.7469 31.712C22.7254 31.7303 22.6878 31.7442 22.6344 31.7538C22.5852 31.7633 22.5425 31.7824 22.5063 31.8111C22.4701 31.8389 22.4037 31.905 22.3071 32.0093C22.1898 32.137 22.1165 32.2313 22.0871 32.2922C22.0587 32.3521 22.0444 32.4421 22.0444 32.562C22.0444 32.6628 22.0483 32.7563 22.0561 32.8423C22.0604 32.8953 22.0686 32.9322 22.0807 32.9531C22.0927 32.9731 22.1177 32.9931 22.1557 33.0131C22.2187 33.0461 22.2501 33.0874 22.2501 33.1369C22.2501 33.2551 22.0768 33.3142 21.7301 33.3142C21.5877 33.3142 21.4532 33.3003 21.3264 33.2725C21.2195 33.249 21.166 33.2025 21.166 33.133C21.166 33.0791 21.1988 33.0404 21.2643 33.017C21.3135 32.9996 21.3441 32.9774 21.3562 32.9505C21.3838 32.8905 21.3976 32.7489 21.3976 32.5255C21.3976 32.456 21.3907 32.4021 21.3769 32.3639C21.3631 32.3248 21.3329 32.2743 21.2863 32.2126C21.1888 32.0849 21.0884 31.9697 20.9849 31.8672C20.94 31.8229 20.8969 31.7929 20.8555 31.7772C20.7968 31.7555 20.7615 31.7394 20.7494 31.729C20.7253 31.7081 20.7132 31.6803 20.7132 31.6456C20.7132 31.5873 20.7567 31.5456 20.8439 31.5204C20.931 31.4943 21.0767 31.4813 21.2811 31.4813Z" fill="white"/>
  <path d="M24.2761 31.4722C24.365 31.4722 24.4814 31.4943 24.6254 31.5387C24.6427 31.5439 24.6565 31.5465 24.6668 31.5465C24.6754 31.5465 24.7013 31.5387 24.7444 31.523C24.7582 31.5178 24.7729 31.5152 24.7884 31.5152C24.8462 31.5152 24.907 31.5613 24.9708 31.6534C25.0355 31.7455 25.0679 31.8333 25.0679 31.9167C25.0679 31.9654 25.0532 32.0067 25.0239 32.0406C24.9954 32.0736 24.9605 32.0901 24.9191 32.0901C24.8846 32.0901 24.8566 32.0831 24.835 32.0692C24.8134 32.0553 24.766 32.0141 24.6927 31.9454C24.5892 31.8481 24.4874 31.7994 24.3874 31.7994C24.3391 31.7994 24.3003 31.8111 24.2709 31.8346C24.2425 31.8581 24.2282 31.8889 24.2282 31.9271C24.2282 32.0028 24.2942 32.0597 24.4262 32.0979C24.6047 32.1509 24.719 32.1896 24.769 32.2139C24.989 32.3217 25.0989 32.4803 25.0989 32.6898C25.0989 32.8749 25.0239 33.0261 24.8738 33.1434C24.7203 33.2634 24.5198 33.3233 24.2722 33.3233C24.1618 33.3233 24.0454 33.3103 23.9229 33.2842C23.8005 33.2573 23.712 33.226 23.6577 33.1904C23.6163 33.1625 23.5788 33.1021 23.5452 33.0092C23.5124 32.9153 23.496 32.824 23.496 32.7354C23.496 32.6928 23.5046 32.6607 23.5219 32.6389C23.5434 32.6111 23.5706 32.5972 23.6034 32.5972C23.6362 32.5972 23.6676 32.6142 23.6978 32.6481C23.7159 32.6672 23.7586 32.7284 23.8259 32.8319C23.8578 32.8805 23.9083 32.9209 23.9773 32.9531C24.0471 32.9853 24.1191 33.0013 24.1933 33.0013C24.2571 33.0013 24.3089 32.9896 24.3486 32.9661C24.3882 32.9418 24.4081 32.9109 24.4081 32.8736C24.4081 32.8388 24.3925 32.8088 24.3615 32.7836C24.3305 32.7584 24.28 32.735 24.2101 32.7132C24.0868 32.6741 23.9928 32.6385 23.9281 32.6063C23.8634 32.5733 23.803 32.532 23.747 32.4825C23.6107 32.3608 23.5426 32.2226 23.5426 32.0679C23.5426 31.9915 23.5603 31.9171 23.5956 31.845C23.631 31.772 23.681 31.709 23.7457 31.656C23.8906 31.5334 24.0674 31.4722 24.2761 31.4722Z" fill="white"/>
  <path d="M25.773 31.5087H26.4548C26.5281 31.5061 26.5949 31.4961 26.6553 31.4787C26.6812 31.4717 26.704 31.4683 26.7238 31.4683C26.7937 31.4683 26.8614 31.5204 26.927 31.6247C26.9934 31.729 27.0266 31.8363 27.0266 31.9467C27.0266 32.0223 27.0037 32.0775 26.958 32.1123C26.9235 32.1383 26.8821 32.1514 26.8338 32.1514C26.7881 32.1514 26.7484 32.1388 26.7148 32.1136C26.6812 32.0875 26.6479 32.0449 26.6152 31.9858C26.5867 31.9319 26.5643 31.8967 26.5479 31.8802C26.5315 31.8637 26.5117 31.8554 26.4884 31.8554C26.4565 31.8554 26.4336 31.8689 26.4198 31.8959C26.406 31.9228 26.3991 31.9671 26.3991 32.0288V32.7589C26.3991 32.8336 26.4069 32.8879 26.4224 32.9218C26.4379 32.9557 26.4673 32.9818 26.5104 33C26.557 33.02 26.5884 33.0391 26.6048 33.0574C26.6221 33.0748 26.6307 33.0991 26.6307 33.1304C26.6307 33.193 26.5884 33.2395 26.5039 33.2699C26.4203 33.3003 26.2913 33.3155 26.1171 33.3155C25.9032 33.3155 25.7445 33.2977 25.641 33.2621C25.5539 33.2325 25.5103 33.1847 25.5103 33.1187C25.5103 33.083 25.5259 33.0552 25.5569 33.0352C25.5647 33.0309 25.5953 33.0205 25.6488 33.0039C25.6815 32.9944 25.704 32.9761 25.716 32.9492C25.729 32.9222 25.7393 32.8705 25.7471 32.7941C25.754 32.7263 25.7605 32.6168 25.7665 32.4655C25.7725 32.3135 25.7755 32.1818 25.7755 32.0705C25.7755 31.9923 25.7695 31.9367 25.7574 31.9037C25.7454 31.8707 25.7255 31.8541 25.6979 31.8541C25.6643 31.8541 25.6315 31.8785 25.5996 31.9271C25.5418 32.0158 25.4944 32.0745 25.4573 32.1031C25.4133 32.137 25.3706 32.154 25.3292 32.154C25.2826 32.154 25.2443 32.1366 25.2141 32.1018C25.1839 32.0662 25.1688 32.021 25.1688 31.9663C25.1688 31.9124 25.1809 31.8533 25.205 31.789C25.2292 31.7238 25.2615 31.6638 25.302 31.6091C25.3676 31.5204 25.4323 31.4761 25.4961 31.4761C25.5133 31.4761 25.5332 31.4787 25.5556 31.4839C25.6022 31.4935 25.6401 31.5 25.6695 31.5035C25.6996 31.5069 25.7341 31.5087 25.773 31.5087Z" fill="white"/>
  <path d="M28.6101 32.3873L28.8546 32.9153C28.8779 32.964 28.8973 32.9961 28.9128 33.0118C28.9284 33.0265 28.9521 33.0365 28.984 33.0417C29.0461 33.0513 29.0771 33.083 29.0771 33.1369C29.0771 33.2004 29.0392 33.246 28.9633 33.2738C28.8874 33.3016 28.7632 33.3155 28.5907 33.3155C28.3958 33.3155 28.2513 33.3073 28.1573 33.2907C28.1142 33.2829 28.0797 33.2673 28.0538 33.2438C28.0288 33.2195 28.0163 33.1904 28.0163 33.1565C28.0163 33.1304 28.0228 33.1104 28.0357 33.0965C28.0495 33.0817 28.0745 33.0683 28.1107 33.0561C28.1513 33.0422 28.1715 33.0187 28.1715 32.9857C28.1715 32.9275 28.1366 32.8931 28.0667 32.8827C27.9917 32.8723 27.886 32.8671 27.7498 32.8671C27.6351 32.8671 27.5665 32.874 27.5441 32.8879C27.5303 32.8966 27.5182 32.9123 27.5078 32.9348C27.4975 32.9574 27.4923 32.9792 27.4923 33C27.4923 33.0191 27.4958 33.0318 27.5027 33.0378C27.5104 33.043 27.5346 33.0522 27.5751 33.0652C27.6277 33.0809 27.654 33.1121 27.654 33.1591C27.654 33.2625 27.5311 33.3142 27.2853 33.3142C27.1456 33.3142 27.043 33.3046 26.9774 33.2855C26.917 33.2673 26.8869 33.2273 26.8869 33.1656C26.8869 33.1386 26.8933 33.1178 26.9063 33.103C26.9201 33.0882 26.9442 33.0748 26.9787 33.0626C27.0348 33.0426 27.077 33.0148 27.1055 32.9792C27.1348 32.9427 27.1762 32.8653 27.2297 32.7471L27.4121 32.3443C27.4794 32.1966 27.5242 32.0862 27.5467 32.0132C27.5699 31.9393 27.582 31.8672 27.5829 31.7968C27.5837 31.722 27.5881 31.6703 27.5958 31.6416C27.6044 31.6121 27.623 31.5834 27.6515 31.5556C27.711 31.4948 27.7869 31.4644 27.8791 31.4644C27.9663 31.4644 28.0495 31.4987 28.1288 31.5673C28.2392 31.6612 28.3997 31.9345 28.6101 32.3873ZM27.7097 32.5516H27.9632C28.0098 32.5516 28.0331 32.5412 28.0331 32.5203C28.0331 32.4916 28.0008 32.4212 27.9361 32.3091C27.9067 32.2578 27.8843 32.2235 27.8688 32.2061C27.8533 32.1887 27.8369 32.18 27.8196 32.18C27.7886 32.18 27.7627 32.2092 27.742 32.2674C27.7386 32.2752 27.7261 32.3061 27.7045 32.3599C27.6683 32.4486 27.6502 32.5016 27.6502 32.519C27.6502 32.5407 27.67 32.5516 27.7097 32.5516Z" fill="white"/>
  <path d="M30.0785 31.7772C30.019 31.7772 29.9823 31.7924 29.9685 31.8229C29.9582 31.8454 29.9482 31.8898 29.9388 31.9558C29.9301 32.0219 29.9258 32.0818 29.9258 32.1357C29.9258 32.1679 29.9362 32.19 29.9569 32.2022C29.9776 32.2144 30.0164 32.2205 30.0733 32.2205C30.1113 32.2205 30.1393 32.2135 30.1574 32.1996C30.1755 32.1857 30.188 32.1622 30.1949 32.1292C30.2148 32.0345 30.2553 31.9871 30.3165 31.9871C30.4218 31.9871 30.4744 32.114 30.4744 32.3678C30.4744 32.5286 30.4515 32.6467 30.4058 32.7224C30.3782 32.7684 30.3402 32.7914 30.2919 32.7914C30.2411 32.7914 30.2117 32.7571 30.204 32.6885C30.1997 32.6441 30.1941 32.6129 30.1872 32.5946C30.1811 32.5764 30.169 32.559 30.1509 32.5425C30.1225 32.5155 30.0811 32.502 30.0267 32.502C29.9879 32.502 29.9616 32.509 29.9478 32.5229C29.934 32.5368 29.928 32.5633 29.9297 32.6024C29.9297 32.6094 29.9293 32.6498 29.9284 32.7237C29.9284 32.874 29.9439 32.9657 29.975 32.9987C29.9853 33.0118 29.9957 33.0205 30.006 33.0248C30.0172 33.0283 30.0457 33.0335 30.0914 33.0404C30.1138 33.0439 30.1328 33.0557 30.1483 33.0756C30.1639 33.0956 30.1716 33.1187 30.1716 33.1447C30.1716 33.2117 30.1328 33.2547 30.0552 33.2738C29.9431 33.3007 29.7857 33.3142 29.583 33.3142C29.4053 33.3142 29.2828 33.3038 29.2156 33.2829C29.1854 33.2734 29.1608 33.256 29.1418 33.2308C29.1229 33.2056 29.1134 33.1778 29.1134 33.1473C29.1134 33.1091 29.1272 33.0782 29.1548 33.0548C29.1617 33.0496 29.1854 33.0387 29.2259 33.0222C29.2742 33.0031 29.3031 32.9587 29.3126 32.8892C29.3281 32.7823 29.3359 32.5385 29.3359 32.1579C29.3359 31.9936 29.3303 31.8872 29.3191 31.8385C29.3079 31.7898 29.2807 31.7559 29.2376 31.7368C29.1944 31.7177 29.166 31.7012 29.1522 31.6873C29.1392 31.6725 29.1328 31.6516 29.1328 31.6247C29.1328 31.5865 29.1513 31.5547 29.1884 31.5295C29.2255 31.5035 29.2712 31.4904 29.3255 31.4904C29.36 31.4904 29.4105 31.493 29.4769 31.4983C29.6175 31.5095 29.7857 31.5152 29.9815 31.5152C30.2945 31.5152 30.5054 31.5065 30.6141 31.4891C30.6287 31.4874 30.64 31.4865 30.6477 31.4865C30.6779 31.4865 30.7068 31.5039 30.7344 31.5387C30.8103 31.636 30.8483 31.7438 30.8483 31.862C30.8483 31.9158 30.8357 31.9589 30.8107 31.991C30.7857 32.0232 30.7529 32.0393 30.7124 32.0393C30.6822 32.0393 30.6594 32.0332 30.6438 32.021C30.6283 32.0088 30.5886 31.9663 30.5248 31.8932C30.486 31.8481 30.439 31.8185 30.3838 31.8046C30.3295 31.7907 30.2277 31.7816 30.0785 31.7772Z" fill="white"/>
  <path d="M31.8302 31.7772C31.7707 31.7772 31.734 31.7924 31.7202 31.8229C31.7099 31.8454 31.7 31.8898 31.6905 31.9558C31.6818 32.0219 31.6775 32.0818 31.6775 32.1357C31.6775 32.1679 31.6879 32.19 31.7086 32.2022C31.7293 32.2144 31.7681 32.2205 31.825 32.2205C31.863 32.2205 31.891 32.2135 31.9091 32.1996C31.9272 32.1857 31.9397 32.1622 31.9466 32.1292C31.9665 32.0345 32.007 31.9871 32.0682 31.9871C32.1735 31.9871 32.2261 32.114 32.2261 32.3678C32.2261 32.5286 32.2032 32.6467 32.1575 32.7224C32.1299 32.7684 32.092 32.7914 32.0437 32.7914C31.9928 32.7914 31.9634 32.7571 31.9557 32.6885C31.9514 32.6441 31.9458 32.6129 31.9389 32.5946C31.9328 32.5764 31.9208 32.559 31.9026 32.5425C31.8742 32.5155 31.8328 32.502 31.7784 32.502C31.7396 32.502 31.7133 32.509 31.6995 32.5229C31.6857 32.5368 31.6797 32.5633 31.6814 32.6024C31.6814 32.6094 31.681 32.6498 31.6801 32.7237C31.6801 32.874 31.6956 32.9657 31.7267 32.9987C31.737 33.0118 31.7474 33.0205 31.7577 33.0248C31.769 33.0283 31.7974 33.0335 31.8431 33.0404C31.8656 33.0439 31.8845 33.0557 31.9001 33.0756C31.9156 33.0956 31.9233 33.1187 31.9233 33.1447C31.9233 33.2117 31.8845 33.2547 31.8069 33.2738C31.6948 33.3007 31.5374 33.3142 31.3347 33.3142C31.157 33.3142 31.0345 33.3038 30.9673 33.2829C30.9371 33.2734 30.9125 33.256 30.8935 33.2308C30.8746 33.2056 30.8651 33.1778 30.8651 33.1473C30.8651 33.1091 30.8789 33.0782 30.9065 33.0548C30.9134 33.0496 30.9371 33.0387 30.9776 33.0222C31.0259 33.0031 31.0548 32.9587 31.0643 32.8892C31.0798 32.7823 31.0876 32.5385 31.0876 32.1579C31.0876 31.9936 31.082 31.8872 31.0708 31.8385C31.0596 31.7898 31.0324 31.7559 30.9893 31.7368C30.9461 31.7177 30.9177 31.7012 30.9039 31.6873C30.8909 31.6725 30.8845 31.6516 30.8845 31.6247C30.8845 31.5865 30.903 31.5547 30.9401 31.5295C30.9772 31.5035 31.0229 31.4904 31.0772 31.4904C31.1117 31.4904 31.1622 31.493 31.2286 31.4983C31.3692 31.5095 31.5374 31.5152 31.7332 31.5152C32.0462 31.5152 32.2571 31.5065 32.3658 31.4891C32.3805 31.4874 32.3917 31.4865 32.3994 31.4865C32.4296 31.4865 32.4585 31.5039 32.4861 31.5387C32.562 31.636 32.6 31.7438 32.6 31.862C32.6 31.9158 32.5875 31.9589 32.5624 31.991C32.5374 32.0232 32.5047 32.0393 32.4641 32.0393C32.4339 32.0393 32.4111 32.0332 32.3956 32.021C32.38 32.0088 32.3404 31.9663 32.2765 31.8932C32.2377 31.8481 32.1907 31.8185 32.1355 31.8046C32.0812 31.7907 31.9794 31.7816 31.8302 31.7772Z" fill="white"/>
  <defs>
    <linearGradient id="paint0_linear_3664_2838" x1="0" y1="0" x2="40" y2="40" gradientUnits="userSpaceOnUse">
      <stop stop-color="#45C5FC"/>
      <stop offset="1" stop-color="#1861FD"/>
    </linearGradient>
  </defs>
</svg>