<svg xmlns="http://www.w3.org/2000/svg" width="14" height="17" viewBox="0 0 14 17" fill="none">
  <path d="M1 1.5C0.446875 1.5 0 1.94687 0 2.5V5.5C0 6.05312 0.446875 6.5 1 6.5C1.55313 6.5 2 6.05312 2 5.5V3.5H4C4.55312 3.5 5 3.05313 5 2.5C5 1.94687 4.55312 1.5 4 1.5H1ZM2 11.5C2 10.9469 1.55313 10.5 1 10.5C0.446875 10.5 0 10.9469 0 11.5V14.5C0 15.0531 0.446875 15.5 1 15.5H4C4.55312 15.5 5 15.0531 5 14.5C5 13.9469 4.55312 13.5 4 13.5H2V11.5ZM10 1.5C9.44687 1.5 9 1.94687 9 2.5C9 3.05313 9.44687 3.5 10 3.5H12V5.5C12 6.05312 12.4469 6.5 13 6.5C13.5531 6.5 14 6.05312 14 5.5V2.5C14 1.94687 13.5531 1.5 13 1.5H10ZM14 11.5C14 10.9469 13.5531 10.5 13 10.5C12.4469 10.5 12 10.9469 12 11.5V13.5H10C9.44687 13.5 9 13.9469 9 14.5C9 15.0531 9.44687 15.5 10 15.5H13C13.5531 15.5 14 15.0531 14 14.5V11.5Z" fill="#A0AEC0"/>
</svg>